<?xml version="1.0" standalone="no"?>
<!DOCTYPE svg PUBLIC "-//W3C//DTD SVG 20010904//EN"
 "http://www.w3.org/TR/2001/REC-SVG-20010904/DTD/svg10.dtd">
<svg version="1.0" xmlns="http://www.w3.org/2000/svg" viewBox="0 0 4321.000000 3727.000000"
 preserveAspectRatio="xMidYMid meet">
<metadata>
Created by potrace 1.16, written by Peter Selinger 2001-2019
</metadata>
<g transform="translate(0.000000,3727.000000) scale(0.100000,-0.100000)" fill="#253048" stroke="none">
<path class="bolt" d="M30160 35844 c-25 -2 -126 -11 -225 -19 -289 -25 -597 -60 -965 -111
-133 -19 -585 -114 -1615 -340 -786 -173 -1468 -326 -1515 -340 -285 -88 -440
-264 -440 -500 0 -266 220 -466 614 -559 56 -13 125 -34 152 -45 50 -22 119
-69 111 -76 -2 -2 -546 -150 -1208 -328 l-1204 -324 -32 -38 c-40 -46 -73
-131 -73 -187 1 -89 73 -180 170 -212 l48 -16 1192 321 c656 177 1221 331
1255 344 187 68 308 202 335 371 42 259 -186 522 -535 616 -258 69 -372 117
-343 144 37 37 12 32 2533 586 700 154 1673 443 1940 576 111 56 143 97 93
124 -22 12 -206 20 -288 13z"/>
<path class="bolt" d="M9367 35103 c-31 -30 22 -91 153 -180 232 -156 824 -473 1215 -651
315 -143 1457 -526 2295 -771 924 -269 1219 -331 1584 -331 325 0 564 64 779
208 135 91 232 199 377 417 185 278 259 330 433 304 133 -20 644 -199 1067
-374 351 -146 823 -372 1157 -556 143 -79 150 -81 200 -76 69 7 158 53 197
100 27 33 31 48 34 110 3 56 -1 85 -18 129 l-21 58 -167 90 c-611 332 -1220
602 -1867 830 -387 136 -519 166 -690 157 -120 -7 -193 -25 -288 -73 -152 -76
-244 -171 -428 -440 -166 -244 -244 -313 -425 -373 -120 -40 -257 -55 -413
-48 -238 12 -418 48 -896 178 -773 211 -1541 453 -2285 721 -168 60 -399 139
-515 174 -115 36 -329 104 -475 151 -480 155 -661 207 -823 238 -82 16 -169
20 -180 8z"/>
<path d="M21295 32930 c-491 -36 -908 -233 -1149 -544 -275 -353 -331 -764
-155 -1136 79 -167 187 -317 375 -521 49 -54 148 -162 221 -240 153 -167 224
-253 298 -364 60 -91 132 -230 165 -323 l23 -62 -51 -173 c-91 -308 -148 -561
-189 -832 -13 -91 -17 -183 -18 -380 0 -388 20 -484 225 -1110 165 -503 248
-780 237 -791 -3 -3 -108 -9 -234 -14 -470 -17 -1446 -141 -2178 -275 -1962
-361 -3524 -1029 -4860 -2079 -291 -229 -491 -406 -851 -756 -1717 -1667
-2947 -3605 -3833 -6039 -164 -450 -410 -1201 -457 -1396 -113 -473 -170
-1165 -181 -2180 -11 -1078 39 -2062 132 -2612 146 -862 518 -1747 1233 -2933
965 -1601 1879 -2733 2932 -3631 1127 -962 2601 -1727 4514 -2344 132 -42 324
-110 428 -151 1050 -412 2109 -670 3168 -773 58 -6 236 -20 395 -31 160 -11
321 -22 360 -26 114 -10 708 -6 880 6 448 30 897 95 1515 220 1244 251 2478
736 3630 1427 626 376 1352 918 1725 1287 60 60 177 163 258 228 577 463 1086
916 1553 1383 753 752 1282 1425 1734 2205 1142 1970 1602 4437 1295 6945
-240 1960 -912 3929 -2028 5945 -845 1527 -1727 2597 -2735 3318 -617 441
-1323 816 -2218 1178 -1587 642 -3055 1025 -4399 1149 -255 24 -658 45 -858
45 -180 0 -303 16 -325 43 -10 12 -76 400 -111 657 -102 742 -150 1533 -137
2265 5 279 10 375 20 390 19 28 175 204 276 309 119 124 297 287 506 463 427
359 566 567 593 887 28 334 -101 678 -345 920 -321 319 -836 486 -1379 446z
m1120 -6855 c1184 -21 2645 -331 4155 -880 1232 -448 2114 -884 2830 -1398
534 -384 1055 -896 1516 -1492 500 -646 1007 -1479 1498 -2462 1289 -2582
1831 -5155 1595 -7568 -186 -1901 -847 -3636 -1917 -5034 -553 -721 -1293
-1467 -2230 -2247 l-207 -172 -7 36 c-4 20 -16 123 -28 227 -97 899 -357 1826
-714 2545 -40 80 -148 286 -240 458 -301 560 -386 779 -356 919 33 153 169
300 624 677 1087 898 1361 1139 1761 1547 547 558 814 965 937 1429 28 106 31
132 36 324 l5 209 38 84 c87 187 168 468 204 703 22 150 30 430 16 580 -17
170 -33 247 -97 440 -97 295 -270 611 -462 841 -74 89 -80 99 -86 155 -31 261
-196 716 -477 1309 l-101 213 -91 21 c-51 11 -134 30 -185 42 -51 12 -92 24
-90 28 2 3 40 82 86 174 243 497 428 997 496 1342 117 597 126 1034 27 1323
-57 164 -155 287 -276 344 -66 30 -70 31 -209 29 -293 -3 -736 -28 -1091 -61
-1382 -131 -2455 -452 -3175 -948 -423 -292 -734 -659 -875 -1032 -16 -41 -29
-76 -30 -77 0 -1 -40 4 -87 12 -311 50 -958 43 -1798 -20 -113 -9 -554 -45
-980 -80 -1213 -101 -1624 -125 -2136 -125 -713 0 -1217 71 -1731 246 -327
110 -480 181 -1353 626 -405 206 -666 276 -985 265 -226 -8 -389 -57 -600
-184 -271 -162 -507 -400 -1125 -1134 -1138 -1350 -1413 -1635 -1875 -1937
-204 -134 -234 -159 -289 -240 -73 -109 -91 -173 -90 -332 0 -115 4 -149 26
-231 62 -223 179 -464 503 -1034 286 -501 384 -681 520 -953 148 -294 191
-391 406 -904 256 -612 313 -732 396 -836 100 -123 181 -167 402 -217 540
-122 863 -313 1841 -1086 180 -142 267 -200 395 -265 l101 -50 -89 -165 c-226
-418 -365 -720 -422 -914 -73 -250 -41 -433 105 -588 86 -92 158 -137 440
-275 273 -133 368 -196 442 -293 134 -178 126 -409 -27 -837 -167 -468 -231
-777 -222 -1067 6 -185 23 -263 106 -488 72 -192 88 -294 73 -458 -49 -542
-332 -1165 -803 -1764 -43 -55 -105 -129 -136 -164 l-58 -63 -120 50 c-1949
814 -3305 1874 -4594 3592 -640 852 -1368 2033 -1736 2817 -366 782 -527 1366
-589 2138 -92 1153 -84 2618 20 3500 43 363 77 516 204 918 850 2689 1964
4655 3628 6407 538 566 1012 993 1497 1347 1565 1143 3404 1756 6085 2028 140
15 401 49 580 76 279 43 356 51 540 58 118 4 251 6 295 4 44 -1 206 -5 360 -8z
m8079 -5743 c25 -49 47 -137 54 -225 l8 -86 -31 23 c-117 90 -190 120 -284
120 -87 0 -142 -20 -353 -125 -98 -49 -216 -105 -263 -124 -118 -49 -576 -205
-764 -260 -436 -129 -671 -227 -956 -400 -536 -326 -1044 -858 -1371 -1437
l-58 -101 -20 25 c-12 14 -71 85 -132 159 -207 250 -421 470 -564 581 l-34 27
18 58 c26 82 94 214 164 318 293 435 863 801 1642 1053 532 172 1172 294 1895
362 215 20 640 48 800 53 256 8 233 10 249 -21z m-52 -514 l109 -51 -7 -61
c-11 -116 -43 -323 -73 -477 -17 -84 -40 -210 -51 -279 -31 -185 -85 -445
-147 -710 -30 -129 -69 -313 -88 -408 -18 -95 -35 -176 -39 -179 -3 -3 -83 11
-178 31 -359 77 -445 89 -658 89 -240 1 -362 -20 -715 -120 -68 -19 -866 -344
-908 -370 -9 -5 -3 63 15 167 51 304 309 751 717 1240 95 113 380 429 417 462
11 9 69 30 129 48 251 71 421 135 600 225 214 107 334 181 538 332 185 137
181 136 339 61z m-13922 -681 c206 -53 363 -124 838 -375 677 -359 1219 -557
1783 -651 410 -69 679 -85 1329 -78 609 7 775 17 2035 122 1059 89 1383 111
1828 125 453 14 812 -8 962 -60 145 -50 396 -285 700 -655 188 -228 565 -738
554 -749 -12 -12 -3592 -1436 -3597 -1431 -2 2 13 63 34 136 l37 133 -7 156
c-24 547 -82 790 -227 945 -147 157 -304 178 -719 97 -113 -23 -288 -50 -390
-62 -351 -40 -536 -84 -667 -161 -87 -51 -220 -189 -280 -289 -28 -47 -100
-179 -161 -295 -60 -115 -171 -322 -247 -460 -124 -226 -477 -882 -633 -1177
l-62 -116 184 -131 c102 -72 188 -131 191 -131 4 0 35 22 69 49 128 102 371
210 641 285 347 96 887 183 1340 216 l160 12 385 150 c963 377 3074 1217 4124
1642 279 113 512 204 516 201 10 -6 105 -169 182 -310 95 -174 139 -282 153
-376 7 -48 20 -100 29 -118 72 -139 278 -209 856 -290 324 -45 727 -88 1230
-131 129 -11 268 -27 308 -37 l72 -17 52 -80 c130 -202 249 -468 299 -665 72
-282 37 -497 -105 -645 -43 -44 -65 -57 -140 -84 -310 -112 -585 -250 -1126
-562 -322 -186 -462 -261 -840 -450 -1101 -551 -2641 -1211 -3700 -1585 -113
-40 -268 -96 -345 -125 -200 -75 -307 -100 -422 -100 -116 0 -191 18 -302 72
-103 51 -168 99 -296 218 -105 97 -134 116 -159 107 -39 -15 1 -182 71 -301
194 -333 540 -505 934 -467 162 16 391 65 554 118 700 227 2053 785 3185 1313
635 296 1063 514 1470 748 563 324 828 460 1075 552 77 29 165 65 197 81 77
39 164 113 228 195 30 38 57 73 61 78 15 17 213 -113 337 -222 34 -30 85 -81
112 -112 l50 -58 -10 -119 c-13 -152 -53 -388 -84 -495 -155 -532 -725 -1174
-1941 -2187 -143 -119 -348 -288 -455 -376 -421 -345 -631 -538 -733 -674
-150 -201 -207 -371 -193 -582 15 -243 107 -470 441 -1089 179 -332 284 -546
364 -743 l60 -147 -37 0 c-20 -1 -72 -7 -115 -15 l-78 -14 -172 -168 c-1051
-1027 -2319 -1798 -3717 -2261 -802 -266 -1625 -422 -2490 -471 -286 -17
-1375 -24 -1620 -12 -550 29 -1060 92 -1490 185 -255 55 -494 121 -825 228
-170 55 -366 115 -435 133 -90 23 -124 36 -122 46 82 322 107 504 99 719 -6
179 -24 262 -105 482 -84 226 -96 322 -67 527 24 165 69 336 170 636 143 424
173 577 162 810 -16 332 -159 579 -444 768 -98 65 -145 90 -433 230 -165 80
-240 134 -240 171 0 31 41 166 79 261 54 133 169 363 340 680 412 763 578
1151 656 1539 42 209 47 314 49 1016 1 709 -3 805 -55 1150 -100 666 -333
1263 -705 1802 l-74 107 63 20 c192 63 406 87 509 57 110 -32 196 -13 277 60
46 42 49 46 60 121 48 307 166 561 338 730 73 71 221 173 282 194 39 14 39 7
-2 264 l-32 200 -30 3 c-701 59 -1302 200 -1524 357 -34 23 -196 174 -360 334
-165 160 -301 291 -304 291 -2 0 44 -196 104 -435 59 -239 115 -483 123 -542
44 -322 23 -664 -60 -973 -36 -135 -145 -415 -215 -551 -135 -265 -254 -416
-589 -749 -142 -140 -261 -265 -264 -278 -12 -38 10 -55 63 -47 122 18 320
108 516 236 179 116 320 234 446 375 40 43 92 91 117 106 l46 27 49 -67 c366
-495 593 -1034 696 -1652 61 -366 76 -707 62 -1385 -9 -427 -14 -528 -30 -620
-34 -190 -112 -429 -220 -675 -74 -167 -224 -460 -235 -460 -17 0 -216 205
-391 405 -195 221 -502 535 -610 622 -95 77 -354 249 -482 322 -251 142 -556
258 -828 316 -82 18 -127 33 -142 47 -46 43 -117 195 -343 738 -321 769 -445
1019 -923 1860 -355 625 -456 831 -493 1010 -25 120 -17 135 126 223 129 80
349 243 475 352 123 107 421 407 593 599 175 194 528 604 892 1036 436 517
512 604 709 800 255 254 407 358 601 410 102 28 274 22 410 -13z m12766 -1827
c85 -22 203 -74 244 -108 25 -21 25 -21 5 -37 -11 -8 -117 -63 -235 -121 -244
-120 -368 -198 -411 -257 -46 -64 -116 -207 -133 -274 -9 -34 -16 -94 -16
-134 l0 -73 -31 30 c-65 60 -153 182 -193 264 -34 70 -42 98 -44 156 -13 256
169 480 450 554 102 26 259 27 364 0z m-7504 -1059 c42 -11 99 -31 127 -45 52
-27 121 -82 121 -97 0 -11 -116 -88 -276 -183 -73 -43 -155 -98 -183 -123
-103 -90 -173 -216 -189 -340 l-7 -55 -86 89 c-115 119 -161 209 -160 311 1
149 80 286 214 373 54 35 148 72 207 82 64 11 163 5 232 -12z m9295 -788 c120
-162 238 -382 303 -568 88 -252 149 -521 171 -760 11 -124 7 -421 -7 -506 l-6
-37 -77 62 c-148 120 -369 238 -511 274 -52 13 -74 23 -73 33 1 8 11 59 23
114 31 143 25 377 -14 548 -45 194 -151 475 -233 615 -13 24 -22 46 -18 50 9
10 379 241 386 242 3 0 28 -30 56 -67z m-10402 -345 c15 -46 45 -121 66 -167
22 -46 38 -85 37 -86 -2 -2 -55 -17 -118 -33 -63 -17 -144 -40 -180 -51 -35
-11 -65 -19 -66 -18 -2 2 229 436 232 437 1 0 14 -37 29 -82z m8389 -9453 c76
-411 136 -904 136 -1125 l0 -76 -162 -121 c-1369 -1016 -2785 -1772 -4173
-2226 -504 -165 -1019 -288 -1425 -341 -522 -68 -732 -81 -1340 -81 -570 0
-590 1 -1030 66 -731 107 -1625 325 -2845 694 -312 94 -465 153 -820 318 -248
114 -606 297 -600 306 3 5 41 57 85 116 221 293 435 656 563 953 24 57 29 62
44 50 10 -7 81 -60 158 -118 583 -436 1095 -689 1825 -905 502 -148 934 -239
1475 -311 188 -25 224 -27 610 -27 417 -1 619 8 1008 44 1003 92 2000 326
2916 685 159 62 164 64 177 45 85 -121 202 -221 329 -282 205 -100 444 -89
612 27 143 99 209 251 201 464 -4 98 -9 129 -37 205 -18 50 -34 97 -37 105 -3
11 26 31 98 70 661 354 1548 1001 2103 1533 50 47 93 82 96 79 4 -4 18 -70 33
-147z m-2494 -1814 c29 -158 -51 -303 -188 -341 -60 -16 -163 -12 -226 10 -68
23 -191 96 -259 153 l-48 40 144 64 c80 36 230 106 333 157 l189 93 22 -57
c12 -31 27 -85 33 -119z"/>
<path d="M18993 9680 c-23 -12 -54 -37 -68 -56 -26 -34 -65 -129 -65 -158 0
-8 24 -76 54 -153 164 -422 301 -927 371 -1368 49 -310 57 -351 91 -455 78
-236 220 -393 456 -505 186 -88 358 -119 653 -119 175 1 227 5 310 22 308 65
617 188 950 376 276 157 585 406 585 473 0 7 -10 18 -23 24 -35 16 -158 -17
-407 -109 -598 -221 -913 -297 -1335 -321 -297 -17 -527 36 -650 150 -85 78
-110 150 -155 439 -80 520 -195 972 -367 1445 -92 255 -97 264 -162 299 -75
40 -177 47 -238 16z"/>
<path class="bolt" d="M24441 30958 c-24 -13 -66 -44 -92 -69 -74 -72 -88 -153 -43 -249 32
-70 68 -108 114 -120 179 -47 3558 -802 3630 -811 204 -24 371 15 525 125 89
64 169 155 286 329 126 186 199 265 277 300 82 37 198 50 324 37 141 -14 106
-7 1203 -236 693 -145 1058 -216 1245 -244 914 -135 1272 -170 1431 -140 66
13 76 22 61 54 -32 70 -668 301 -1447 524 -197 57 -2222 479 -2393 498 -374
44 -654 -32 -856 -230 -69 -68 -131 -149 -243 -316 -92 -137 -143 -193 -199
-220 -40 -20 -57 -22 -137 -17 -53 3 -166 22 -267 46 -250 57 -3320 751 -3350
757 -14 3 -44 -5 -69 -18z"/>
<path class="bolt" d="M13534 30681 c-73 -34 -124 -83 -162 -154 -24 -47 -27 -62 -27 -157
0 -168 -70 -83 823 -992 204 -208 205 -210 107 -264 -33 -18 -98 -42 -145 -54
-47 -11 -875 -128 -1840 -260 -1868 -255 -1788 -242 -2610 -414 -393 -83 -680
-166 -777 -226 -34 -20 -43 -50 -20 -68 47 -38 379 -50 892 -33 717 24 635 16
2605 285 987 135 1831 255 1875 267 257 67 432 188 509 352 67 144 59 306 -21
461 -39 74 -97 137 -573 619 l-195 198 95 -6 c52 -3 1044 -46 2204 -96 1644
-70 2116 -87 2138 -78 36 15 115 100 134 144 21 50 18 131 -6 181 -12 23 -40
60 -64 82 -39 36 -51 41 -107 46 -101 9 -4562 196 -4674 196 -89 0 -107 -3
-161 -29z"/>
</g>
</svg>
