<svg id="svg" version="1.1" xmlns="http://www.w3.org/2000/svg" xmlns:xlink="http://www.w3.org/1999/xlink" viewBox="0, 0, 400,345.0127285350613"><g id="svgg"><path id="path0" d="M275.833 13.439 C 273.064 13.706,273.295 13.679,269.667 14.165 C 266.459 14.594,264.431 14.958,262.667 15.421 C 262.529 15.458,261.667 15.647,260.750 15.842 C 259.833 16.037,258.971 16.224,258.833 16.258 C 258.696 16.292,257.721 16.507,256.667 16.737 C 254.133 17.290,251.644 17.841,251.333 17.916 C 251.196 17.950,250.333 18.138,249.417 18.333 C 248.500 18.529,247.600 18.729,247.417 18.778 C 247.233 18.827,246.408 19.007,245.583 19.179 C 244.758 19.351,243.933 19.530,243.750 19.577 C 243.293 19.694,240.495 20.325,240.083 20.403 C 233.766 21.611,233.361 28.390,239.500 30.156 C 239.912 30.274,240.400 30.428,240.583 30.498 C 240.767 30.568,241.340 30.748,241.857 30.899 C 243.767 31.455,243.693 31.510,239.583 32.585 C 238.758 32.800,237.408 33.162,236.583 33.389 C 235.758 33.615,234.483 33.963,233.750 34.161 C 233.017 34.359,232.304 34.552,232.167 34.591 C 232.029 34.630,231.204 34.850,230.333 35.079 C 229.463 35.309,228.037 35.689,227.167 35.925 C 226.296 36.161,224.908 36.530,224.083 36.745 C 223.258 36.959,222.358 37.211,222.083 37.304 C 221.808 37.397,221.384 37.516,221.140 37.569 C 220.723 37.660,220.021 38.735,219.881 39.500 C 219.730 40.319,220.692 41.594,221.588 41.762 C 222.144 41.866,222.387 41.816,225.667 40.912 C 226.537 40.672,227.775 40.340,228.417 40.174 C 229.058 40.008,230.596 39.596,231.833 39.258 C 234.778 38.453,236.256 38.057,238.083 37.580 C 238.908 37.365,239.583 37.179,239.583 37.167 C 239.583 37.155,240.258 36.970,241.083 36.757 C 245.795 35.538,246.533 35.134,247.424 33.285 C 248.164 31.752,247.824 30.053,246.500 28.662 C 245.334 27.438,244.561 27.022,242.167 26.330 C 239.923 25.681,239.327 25.375,239.799 25.112 C 240.086 24.951,241.882 24.467,243.333 24.158 C 248.737 23.009,251.545 22.401,254.500 21.741 C 257.017 21.179,259.621 20.600,261.917 20.092 C 267.471 18.863,269.793 18.291,270.417 18.000 C 270.600 17.915,271.237 17.727,271.833 17.583 C 272.429 17.440,273.067 17.252,273.250 17.167 C 273.433 17.081,274.071 16.891,274.667 16.743 C 275.262 16.596,276.387 16.260,277.167 15.998 C 284.242 13.618,283.751 12.675,275.833 13.439 M86.667 20.282 C 86.667 20.620,87.254 21.229,88.103 21.770 C 88.367 21.938,88.621 22.115,88.667 22.163 C 88.712 22.211,89.026 22.400,89.364 22.583 C 89.702 22.767,90.940 23.454,92.114 24.111 C 94.872 25.653,99.772 28.066,100.884 28.428 C 101.360 28.584,101.825 28.764,101.917 28.828 C 102.008 28.893,102.533 29.082,103.083 29.250 C 103.633 29.417,104.196 29.613,104.333 29.686 C 104.822 29.944,110.437 31.830,113.917 32.905 C 115.017 33.245,116.142 33.599,116.417 33.693 C 116.692 33.786,117.554 34.047,118.333 34.271 C 119.112 34.496,120.388 34.868,121.167 35.099 C 132.005 38.304,136.837 38.769,140.790 36.985 C 141.178 36.810,141.540 36.667,141.594 36.667 C 142.279 36.667,144.599 34.334,146.071 32.167 C 148.268 28.929,148.649 28.821,152.878 30.234 C 157.842 31.893,161.500 33.449,167.498 36.454 C 172.034 38.727,172.375 38.841,173.381 38.421 C 174.855 37.805,175.162 35.581,173.889 34.747 C 173.247 34.326,167.280 31.318,165.497 30.516 C 164.628 30.125,163.692 29.701,163.417 29.574 C 161.456 28.670,157.330 27.067,154.167 25.980 C 149.504 24.378,146.783 24.702,144.372 27.145 C 143.313 28.219,143.391 28.119,142.296 29.770 C 140.217 32.902,138.504 33.737,134.500 33.570 C 132.536 33.488,131.653 33.341,128.750 32.607 C 127.179 32.210,126.185 31.937,122.583 30.911 C 121.758 30.676,120.971 30.454,120.833 30.417 C 120.696 30.381,120.058 30.190,119.417 29.993 C 118.775 29.796,117.688 29.463,117.000 29.253 C 113.944 28.321,108.141 26.386,105.750 25.502 C 105.292 25.333,104.617 25.097,104.250 24.979 C 103.883 24.861,103.508 24.713,103.417 24.651 C 103.325 24.589,102.313 24.257,101.167 23.913 C 100.021 23.570,98.108 22.971,96.917 22.583 C 94.726 21.869,92.384 21.135,90.250 20.496 C 88.468 19.962,86.667 19.854,86.667 20.282 M196.667 40.175 C 193.732 40.435,189.878 41.816,188.571 43.077 C 188.473 43.172,188.118 43.469,187.782 43.736 C 185.014 45.942,183.469 50.472,184.335 53.840 C 184.982 56.354,186.248 58.241,189.859 62.073 C 192.012 64.358,194.000 66.944,194.000 67.459 C 194.000 67.558,194.064 67.664,194.142 67.694 C 194.220 67.725,194.444 68.183,194.641 68.711 L 194.997 69.672 194.656 70.961 C 194.469 71.670,194.248 72.400,194.165 72.583 C 192.693 75.850,192.239 84.644,193.347 88.417 C 193.861 90.166,195.674 95.868,195.837 96.250 C 196.013 96.661,196.521 98.481,196.476 98.540 C 196.458 98.564,196.521 98.733,196.615 98.917 C 196.710 99.100,196.837 99.456,196.897 99.708 L 197.006 100.167 195.378 100.172 C 189.959 100.188,174.500 102.480,166.917 104.392 C 166.000 104.623,164.762 104.932,164.167 105.079 C 161.980 105.616,155.298 107.772,154.043 108.344 C 153.655 108.522,153.280 108.667,153.210 108.667 C 153.078 108.668,151.008 109.487,150.000 109.939 C 149.679 110.082,149.079 110.350,148.667 110.533 C 147.576 111.019,142.051 113.788,141.137 114.307 C 140.709 114.551,139.797 115.067,139.112 115.453 C 138.427 115.840,137.766 116.253,137.642 116.370 C 137.518 116.487,137.142 116.733,136.806 116.917 C 136.152 117.274,132.639 119.641,132.500 119.818 C 132.454 119.877,132.192 120.068,131.917 120.243 C 131.346 120.606,126.792 124.264,125.674 125.257 C 122.181 128.359,116.037 134.624,113.830 137.333 C 113.419 137.837,113.029 138.274,112.963 138.304 C 112.897 138.334,112.448 138.859,111.965 139.471 C 111.482 140.083,110.712 141.038,110.252 141.594 C 109.793 142.150,109.192 142.888,108.917 143.236 C 108.642 143.583,108.340 143.953,108.247 144.059 C 107.919 144.429,105.715 147.446,104.028 149.833 C 102.897 151.433,100.167 155.614,100.167 155.745 C 100.167 155.785,99.942 156.150,99.667 156.557 C 99.392 156.965,99.167 157.351,99.167 157.415 C 99.167 157.479,99.026 157.731,98.854 157.974 C 98.568 158.377,98.168 159.077,96.363 162.333 C 94.258 166.129,91.858 171.041,90.216 174.917 C 89.711 176.108,89.197 177.308,89.074 177.583 C 88.951 177.858,88.689 178.496,88.492 179.000 C 88.295 179.504,87.912 180.479,87.640 181.167 C 86.642 183.694,84.106 190.861,83.749 192.167 C 83.736 192.213,83.585 192.700,83.413 193.250 C 83.241 193.800,83.090 194.287,83.077 194.333 C 83.065 194.379,83.011 194.529,82.957 194.667 C 81.153 199.310,80.417 206.745,80.417 220.333 C 80.417 237.874,81.292 244.675,84.634 253.105 C 85.795 256.033,87.486 259.674,88.804 262.083 C 89.154 262.725,89.707 263.737,90.031 264.333 C 90.615 265.405,90.745 265.636,91.870 267.583 C 92.416 268.529,93.794 270.791,95.257 273.143 C 96.152 274.582,99.541 279.730,99.661 279.833 C 99.714 279.879,99.900 280.140,100.074 280.412 C 100.248 280.685,100.452 280.985,100.528 281.079 C 100.717 281.314,101.860 282.892,102.167 283.341 C 102.304 283.543,102.717 284.105,103.083 284.590 C 103.450 285.075,103.900 285.678,104.083 285.930 C 104.267 286.182,104.492 286.471,104.583 286.571 C 104.675 286.672,105.125 287.240,105.583 287.834 C 106.042 288.428,106.512 289.027,106.629 289.165 C 106.746 289.304,107.009 289.615,107.213 289.858 C 108.642 291.561,109.259 292.273,110.598 293.764 C 112.202 295.550,116.030 299.410,117.443 300.667 C 119.965 302.909,120.606 303.450,122.667 305.070 C 123.904 306.043,124.992 306.898,125.083 306.969 C 125.175 307.040,125.735 307.433,126.327 307.841 C 126.919 308.249,127.552 308.715,127.733 308.875 C 127.915 309.035,128.117 309.167,128.182 309.167 C 128.248 309.167,129.030 309.657,129.920 310.256 C 130.810 310.856,131.811 311.497,132.144 311.681 C 132.477 311.865,133.050 312.181,133.417 312.383 C 133.783 312.585,134.121 312.796,134.167 312.852 C 134.503 313.262,146.079 319.000,146.570 319.000 C 146.619 319.000,147.150 319.225,147.750 319.500 C 148.350 319.775,148.896 320.000,148.963 320.001 C 149.029 320.002,149.271 320.098,149.500 320.216 C 149.729 320.333,150.292 320.565,150.750 320.731 C 151.208 320.896,151.808 321.129,152.083 321.247 C 152.358 321.366,152.771 321.517,153.000 321.583 C 153.229 321.650,153.642 321.807,153.917 321.932 C 154.192 322.058,154.829 322.303,155.333 322.477 C 159.080 323.771,162.299 324.865,163.500 325.251 C 164.279 325.502,165.217 325.843,165.583 326.010 C 166.264 326.319,170.448 327.848,170.750 327.898 C 170.842 327.914,170.992 327.970,171.083 328.024 C 171.509 328.273,177.900 330.197,179.000 330.406 C 179.137 330.432,179.362 330.493,179.500 330.542 C 179.637 330.590,180.612 330.826,181.667 331.067 C 187.301 332.353,192.545 333.134,197.983 333.495 C 199.486 333.595,200.778 333.716,200.854 333.763 C 201.023 333.867,209.781 333.866,210.833 333.761 C 213.674 333.479,216.648 333.150,217.000 333.079 C 217.229 333.032,217.604 332.954,217.833 332.904 C 218.063 332.854,219.338 332.632,220.667 332.410 C 222.690 332.073,225.680 331.498,226.667 331.256 C 230.584 330.295,232.876 329.686,233.250 329.507 C 233.433 329.419,233.921 329.264,234.333 329.161 C 235.172 328.953,237.902 328.064,238.417 327.831 C 238.600 327.748,239.500 327.406,240.417 327.071 C 241.333 326.736,242.398 326.321,242.783 326.148 C 243.167 325.975,243.521 325.833,243.569 325.833 C 243.649 325.833,244.247 325.574,246.333 324.632 C 247.682 324.024,253.248 321.266,253.333 321.164 C 253.379 321.109,253.667 320.963,253.973 320.839 C 254.278 320.716,254.616 320.532,254.723 320.432 C 254.829 320.332,255.254 320.078,255.667 319.869 C 256.499 319.446,256.758 319.293,257.777 318.625 C 258.162 318.373,258.522 318.167,258.578 318.167 C 258.634 318.167,258.883 318.025,259.132 317.851 C 259.380 317.677,260.596 316.875,261.833 316.067 C 263.071 315.260,264.158 314.540,264.250 314.467 C 264.522 314.250,266.111 313.104,266.514 312.833 C 266.718 312.696,267.118 312.393,267.401 312.161 C 267.685 311.929,268.217 311.518,268.583 311.247 C 269.841 310.319,272.584 307.971,274.099 306.528 C 274.933 305.733,275.863 304.896,276.165 304.667 C 276.466 304.438,276.909 304.086,277.148 303.885 C 279.412 301.983,281.138 300.540,281.398 300.333 C 282.191 299.704,284.506 297.636,286.830 295.482 C 290.370 292.201,293.316 289.183,296.904 285.159 C 297.624 284.351,301.095 279.995,301.545 279.333 C 301.701 279.104,302.237 278.354,302.736 277.667 C 303.236 276.979,303.966 275.892,304.359 275.250 C 304.752 274.608,305.117 274.046,305.170 274.000 C 305.272 273.913,305.739 273.153,306.297 272.167 C 306.479 271.846,306.892 271.133,307.217 270.583 C 308.444 268.501,311.151 262.928,312.074 260.583 C 312.327 259.942,312.608 259.275,312.700 259.101 C 312.791 258.927,312.998 258.402,313.159 257.934 C 313.320 257.466,313.719 256.333,314.046 255.417 C 314.563 253.964,315.074 252.349,315.916 249.500 C 316.038 249.088,316.261 248.225,316.411 247.583 C 316.561 246.942,316.731 246.229,316.789 246.000 C 316.847 245.771,316.916 245.471,316.941 245.333 C 316.967 245.196,317.141 244.408,317.329 243.583 C 317.517 242.758,317.817 241.221,317.995 240.167 C 318.174 239.112,318.403 237.810,318.504 237.273 C 318.759 235.915,319.297 230.778,319.518 227.583 C 319.734 224.465,319.614 213.809,319.338 211.667 C 319.238 210.887,319.008 208.900,318.826 207.250 C 318.489 204.182,317.905 200.115,317.738 199.667 C 317.687 199.529,317.496 198.554,317.315 197.500 C 317.133 196.446,316.918 195.358,316.836 195.083 C 316.754 194.808,316.371 193.233,315.985 191.583 C 315.598 189.933,315.228 188.508,315.163 188.417 C 315.097 188.325,314.995 187.981,314.936 187.652 C 314.751 186.623,312.270 178.671,311.846 177.750 C 311.762 177.567,311.579 177.079,311.439 176.667 C 311.063 175.554,310.348 173.631,310.169 173.250 C 310.083 173.067,309.680 172.092,309.273 171.083 C 306.884 165.167,303.619 158.312,300.635 152.951 C 299.808 151.465,298.965 149.950,298.760 149.583 C 298.556 149.217,298.228 148.654,298.032 148.333 C 297.836 148.012,297.513 147.452,297.316 147.088 C 297.118 146.725,296.826 146.237,296.667 146.005 C 296.508 145.773,296.142 145.208,295.854 144.750 C 295.086 143.527,293.831 141.644,292.250 139.344 C 290.260 136.449,285.262 130.413,283.069 128.256 C 281.106 126.326,277.822 123.432,276.408 122.387 C 273.641 120.343,271.027 118.589,269.594 117.815 C 269.233 117.621,268.839 117.362,268.718 117.242 C 268.597 117.121,268.341 116.972,268.148 116.911 C 267.956 116.850,267.545 116.627,267.234 116.416 C 266.739 116.081,261.242 113.324,258.917 112.245 C 257.395 111.540,256.158 111.000,256.062 111.000 C 256.010 111.000,255.731 110.892,255.442 110.760 C 255.153 110.629,253.642 110.025,252.083 109.418 C 250.525 108.812,248.884 108.170,248.436 107.991 C 247.988 107.813,247.550 107.667,247.461 107.667 C 247.373 107.667,247.064 107.566,246.775 107.442 C 246.486 107.318,245.838 107.086,245.333 106.925 C 244.829 106.764,244.192 106.534,243.917 106.412 C 243.642 106.291,243.042 106.100,242.583 105.988 C 242.125 105.877,241.675 105.729,241.583 105.661 C 241.492 105.593,240.854 105.371,240.167 105.167 C 236.927 104.208,235.977 103.935,234.583 103.560 C 233.758 103.339,232.971 103.124,232.833 103.083 C 231.917 102.811,226.445 101.561,224.750 101.237 C 221.952 100.701,221.123 100.572,215.833 99.845 C 213.469 99.520,207.953 99.175,205.033 99.170 C 202.427 99.165,202.473 99.208,202.016 96.302 C 200.688 87.844,199.992 77.959,200.252 71.226 L 200.368 68.202 201.309 67.152 C 203.075 65.182,205.162 63.168,207.333 61.340 C 208.811 60.095,210.175 58.814,210.750 58.131 C 211.117 57.695,211.503 57.238,211.608 57.115 C 213.268 55.174,213.652 50.779,212.401 48.037 C 212.181 47.553,212.000 47.089,212.000 47.007 C 212.000 46.925,211.906 46.758,211.792 46.637 C 211.677 46.516,211.479 46.214,211.351 45.967 C 210.282 43.893,207.153 41.793,203.560 40.737 C 202.449 40.410,198.902 39.936,198.250 40.026 C 198.158 40.039,197.446 40.106,196.667 40.175 M226.070 58.488 C 223.864 59.854,224.331 62.168,226.930 62.753 C 227.564 62.896,228.908 63.196,229.917 63.419 C 231.659 63.806,233.071 64.127,237.250 65.084 C 238.258 65.315,239.946 65.694,241.000 65.927 C 242.821 66.329,244.293 66.662,248.375 67.592 C 255.247 69.158,258.342 69.830,259.500 70.010 C 262.433 70.466,264.846 69.292,266.750 66.480 C 267.208 65.804,267.640 65.225,267.708 65.194 C 267.777 65.164,267.833 65.048,267.833 64.937 C 267.833 64.827,268.152 64.428,268.542 64.051 C 270.272 62.377,271.374 62.286,276.583 63.385 C 281.621 64.448,286.141 65.387,288.815 65.926 C 289.951 66.155,290.939 66.379,291.010 66.423 C 291.175 66.525,294.569 67.065,298.333 67.589 C 299.938 67.813,301.737 68.072,302.333 68.166 C 303.759 68.391,308.325 68.580,308.890 68.438 C 309.862 68.194,309.063 67.416,307.083 66.680 C 305.271 66.006,300.948 64.548,299.167 64.010 C 298.204 63.720,296.929 63.331,296.333 63.145 C 295.121 62.768,293.836 62.483,286.333 60.923 C 282.366 60.099,280.241 59.654,278.250 59.233 C 269.490 57.378,266.892 58.141,263.345 63.607 C 261.896 65.839,261.242 66.005,257.417 65.112 C 256.408 64.876,254.758 64.500,253.750 64.276 C 251.269 63.725,248.297 63.058,246.083 62.555 C 245.075 62.326,243.425 61.954,242.417 61.728 C 239.812 61.143,237.382 60.591,235.167 60.080 C 231.681 59.275,227.823 58.418,227.070 58.280 C 226.729 58.218,226.393 58.288,226.070 58.488 M125.219 60.991 C 124.083 61.506,123.500 62.471,123.500 63.833 C 123.500 65.433,123.187 65.051,131.042 73.022 C 133.730 75.751,134.076 75.592,121.833 77.242 C 119.782 77.518,116.016 78.035,115.750 78.076 C 115.567 78.105,114.479 78.254,113.333 78.407 C 112.188 78.560,110.987 78.727,110.667 78.777 C 110.346 78.828,109.896 78.891,109.667 78.917 C 109.438 78.943,108.050 79.127,106.583 79.326 C 105.117 79.524,103.729 79.712,103.500 79.743 C 102.450 79.885,97.881 80.538,97.583 80.589 C 96.959 80.695,93.751 81.321,93.333 81.418 C 93.104 81.471,92.167 81.665,91.250 81.850 C 89.406 82.221,89.490 82.203,87.500 82.669 C 86.721 82.852,85.922 83.038,85.725 83.084 C 83.803 83.530,82.000 84.342,82.000 84.763 C 82.000 85.190,82.897 85.250,88.917 85.223 C 95.363 85.193,97.051 85.089,101.833 84.421 C 106.455 83.775,110.560 83.213,114.000 82.754 C 115.696 82.528,118.471 82.151,120.167 81.916 C 121.862 81.681,124.600 81.307,126.250 81.083 C 132.058 80.297,132.221 80.263,133.853 79.504 C 136.220 78.404,137.386 76.536,137.083 74.330 C 136.888 72.912,136.288 72.087,132.869 68.536 L 129.597 65.137 132.507 65.241 C 134.107 65.299,136.429 65.418,137.667 65.507 C 138.904 65.595,140.254 65.665,140.667 65.661 C 141.079 65.657,144.904 65.806,149.167 65.991 C 170.543 66.918,170.274 66.911,170.749 66.600 C 171.863 65.869,172.151 64.393,171.392 63.298 C 170.782 62.417,173.295 62.626,152.833 61.751 C 123.354 60.489,126.153 60.567,125.219 60.991 M211.333 103.834 C 215.453 104.181,217.969 104.511,222.083 105.244 C 226.331 106.000,227.822 106.350,236.000 108.518 C 236.688 108.701,237.475 108.950,237.750 109.072 C 238.025 109.194,238.662 109.387,239.167 109.502 C 239.671 109.617,240.158 109.765,240.250 109.831 C 240.342 109.898,241.017 110.144,241.750 110.378 C 243.397 110.903,249.069 112.937,249.750 113.247 C 250.025 113.372,250.550 113.586,250.917 113.723 C 252.799 114.425,253.853 114.840,254.120 114.986 C 254.283 115.076,255.542 115.649,256.917 116.260 C 259.466 117.394,263.143 119.189,264.498 119.961 C 265.774 120.689,269.745 123.072,269.833 123.163 C 269.879 123.211,270.367 123.549,270.917 123.914 C 276.538 127.648,283.466 134.610,288.083 141.163 C 288.542 141.814,289.104 142.598,289.333 142.906 C 289.563 143.213,290.050 143.934,290.417 144.506 C 290.783 145.079,291.271 145.835,291.500 146.188 C 295.164 151.822,300.401 161.660,303.466 168.667 C 304.583 171.219,304.833 171.821,304.833 171.947 C 304.833 172.025,304.973 172.350,305.143 172.669 C 305.314 172.989,305.510 173.438,305.579 173.667 C 305.647 173.896,305.803 174.308,305.925 174.583 C 306.047 174.858,306.420 175.833,306.754 176.750 C 307.088 177.667,307.542 178.879,307.764 179.445 C 307.985 180.011,308.167 180.562,308.167 180.670 C 308.167 180.778,308.272 181.103,308.400 181.391 C 309.897 184.766,312.871 196.738,313.830 203.250 C 314.006 204.442,314.228 205.867,314.324 206.417 C 315.075 210.728,315.552 221.967,315.175 226.500 C 314.714 232.044,314.481 234.598,314.413 234.833 C 314.373 234.971,314.298 235.383,314.244 235.750 C 313.577 240.347,312.557 245.172,311.442 249.000 C 310.941 250.723,310.349 252.661,310.220 253.000 C 310.168 253.137,309.803 254.150,309.409 255.250 C 308.793 256.967,308.249 258.380,307.675 259.750 C 307.066 261.203,304.947 265.522,304.063 267.112 C 302.599 269.743,302.010 270.742,301.032 272.250 C 299.978 273.876,297.324 277.668,296.891 278.167 C 296.772 278.304,296.219 278.979,295.662 279.667 C 294.337 281.303,294.415 281.211,293.077 282.750 C 290.032 286.254,285.703 290.582,281.575 294.250 C 280.853 294.892,279.959 295.687,279.589 296.016 C 279.219 296.346,277.943 297.424,276.752 298.413 L 274.588 300.209 274.377 298.730 C 273.663 293.723,273.476 292.550,273.106 290.750 C 272.319 286.921,270.905 281.919,270.092 280.083 C 269.970 279.808,269.816 279.396,269.749 279.167 C 269.682 278.938,269.446 278.337,269.224 277.833 C 269.001 277.329,268.654 276.542,268.451 276.084 C 267.943 274.932,265.453 270.071,265.208 269.750 C 265.138 269.658,264.569 268.533,263.944 267.250 C 263.320 265.967,262.733 264.778,262.642 264.607 C 261.610 262.692,262.530 259.465,264.420 258.371 C 264.535 258.304,265.043 257.875,265.549 257.417 C 266.055 256.958,266.779 256.321,267.159 256.000 C 267.539 255.679,268.023 255.267,268.236 255.083 C 268.449 254.900,268.767 254.637,268.943 254.500 C 269.454 254.101,271.898 252.106,272.105 251.920 C 272.209 251.826,272.620 251.487,273.018 251.167 C 273.415 250.846,273.860 250.466,274.006 250.323 C 274.151 250.180,274.422 249.955,274.607 249.823 C 274.900 249.614,276.013 248.668,277.238 247.583 C 277.445 247.400,278.170 246.763,278.849 246.168 C 284.014 241.642,288.484 236.622,290.951 232.580 C 292.349 230.288,293.021 227.978,293.145 225.035 C 293.210 223.483,293.323 222.441,293.434 222.368 C 293.863 222.091,295.040 218.269,295.447 215.833 C 295.838 213.494,295.655 208.951,295.101 207.252 C 294.862 206.520,294.667 205.856,294.667 205.777 C 294.667 205.323,292.187 200.402,291.839 200.167 C 291.772 200.121,291.629 199.917,291.521 199.713 C 291.414 199.509,290.966 198.909,290.525 198.379 C 289.869 197.591,289.704 197.260,289.622 196.562 C 289.566 196.093,289.395 195.306,289.241 194.813 C 288.675 193.004,287.778 190.412,287.661 190.250 C 287.595 190.158,287.484 189.896,287.414 189.667 C 287.241 189.097,286.624 187.722,284.930 184.127 C 284.434 183.075,284.239 182.819,283.870 182.740 C 283.620 182.687,283.258 182.580,283.063 182.502 C 282.869 182.424,282.362 182.308,281.936 182.244 C 280.942 182.095,280.946 182.109,281.541 180.833 C 281.818 180.237,282.291 179.225,282.590 178.583 C 283.669 176.272,284.356 174.542,285.302 171.750 C 288.091 163.517,287.741 155.022,284.520 152.785 C 283.758 152.255,283.730 152.250,281.750 152.250 C 278.534 152.250,270.939 152.752,268.750 153.109 C 268.383 153.169,267.896 153.236,267.667 153.258 C 267.125 153.311,263.041 153.955,262.500 154.072 C 262.271 154.122,261.490 154.284,260.764 154.431 C 258.428 154.907,253.573 156.210,253.002 156.514 C 252.863 156.588,252.338 156.775,251.833 156.929 C 249.294 157.706,243.421 160.648,242.225 161.742 C 242.120 161.838,241.678 162.179,241.244 162.500 C 238.407 164.593,235.682 167.988,234.509 170.891 C 234.126 171.839,234.102 171.862,233.599 171.752 C 231.666 171.329,224.205 171.282,220.083 171.665 C 219.075 171.759,216.525 171.955,214.417 172.101 C 212.308 172.247,210.396 172.388,210.167 172.416 C 209.452 172.501,199.026 173.344,196.792 173.498 C 190.534 173.928,182.409 173.847,179.500 173.326 C 175.825 172.668,173.110 172.051,172.250 171.678 C 172.067 171.599,171.692 171.457,171.417 171.363 C 168.692 170.432,166.196 169.266,159.583 165.839 C 153.166 162.512,148.806 162.361,144.083 165.301 C 143.717 165.530,143.379 165.762,143.333 165.818 C 143.287 165.873,142.984 166.116,142.659 166.358 C 142.334 166.600,141.331 167.537,140.429 168.441 C 138.981 169.892,138.050 170.932,135.017 174.481 C 134.595 174.975,134.175 175.463,134.083 175.565 C 133.992 175.667,133.644 176.088,133.310 176.500 C 132.738 177.207,132.492 177.498,131.615 178.500 C 131.415 178.729,130.814 179.442,130.281 180.083 C 128.970 181.660,128.579 182.118,127.772 183.018 C 127.393 183.441,126.633 184.301,126.083 184.931 C 122.891 188.583,119.545 191.625,116.417 193.718 C 113.921 195.387,113.336 196.354,113.334 198.809 C 113.333 199.935,113.652 201.637,113.989 202.308 C 114.065 202.459,114.202 202.771,114.292 203.000 C 114.790 204.261,117.306 208.966,119.462 212.667 C 120.030 213.644,120.672 214.801,121.031 215.500 C 121.243 215.912,121.457 216.287,121.507 216.333 C 121.625 216.442,124.368 222.007,124.835 223.083 C 125.033 223.542,125.334 224.217,125.504 224.583 C 125.674 224.950,125.959 225.625,126.138 226.083 C 127.642 229.932,129.434 233.944,130.083 234.917 C 130.573 235.650,131.363 236.500,131.556 236.500 C 131.648 236.500,131.849 236.613,132.001 236.751 C 132.154 236.890,132.910 237.146,133.681 237.321 C 135.412 237.715,137.416 238.285,137.797 238.494 C 137.955 238.580,138.721 238.957,139.500 239.333 C 140.279 239.708,141.260 240.218,141.680 240.466 C 143.016 241.255,147.307 244.346,149.294 245.951 C 152.492 248.534,155.123 250.333,155.702 250.333 C 155.818 250.333,155.817 250.403,155.698 250.546 C 154.941 251.457,151.469 258.846,151.064 260.405 C 150.109 264.088,151.169 265.917,155.500 268.059 C 161.351 270.953,162.028 272.293,160.357 277.667 C 160.172 278.262,159.870 279.162,159.687 279.667 C 157.586 285.444,157.332 289.982,158.926 293.250 C 160.380 296.228,159.184 302.419,156.131 307.734 C 155.757 308.384,155.348 309.115,155.222 309.357 C 155.096 309.600,154.882 309.890,154.747 310.003 C 154.611 310.115,154.500 310.275,154.500 310.358 C 154.500 310.560,152.847 312.942,152.250 313.600 C 152.158 313.702,151.783 314.170,151.417 314.640 C 150.612 315.674,150.264 315.794,149.311 315.366 C 148.911 315.186,148.021 314.797,147.333 314.502 C 144.034 313.084,139.030 310.565,136.262 308.929 C 135.553 308.510,134.945 308.167,134.911 308.167 C 134.878 308.167,134.528 307.960,134.133 307.708 C 133.739 307.456,133.267 307.156,133.083 307.041 C 131.667 306.151,130.766 305.556,130.606 305.406 C 130.502 305.308,130.192 305.085,129.917 304.909 C 128.843 304.226,127.114 302.962,125.654 301.794 C 125.052 301.311,124.271 300.692,123.919 300.417 C 123.567 300.142,122.935 299.610,122.515 299.235 C 122.094 298.860,121.263 298.118,120.667 297.586 C 118.236 295.417,116.308 293.446,112.702 289.444 C 112.088 288.762,109.914 286.147,109.083 285.090 C 108.808 284.741,108.162 283.921,107.647 283.269 C 107.131 282.617,106.494 281.773,106.230 281.394 C 104.840 279.397,103.252 277.243,103.134 277.194 C 103.060 277.164,103.000 277.073,103.000 276.994 C 103.000 276.867,101.926 275.221,101.537 274.750 C 101.380 274.560,98.042 269.257,97.760 268.750 C 97.594 268.452,97.121 267.669,96.547 266.744 C 96.436 266.564,96.028 265.854,95.641 265.167 C 95.255 264.479,94.877 263.892,94.803 263.861 C 94.728 263.831,94.667 263.735,94.667 263.649 C 94.667 263.564,94.470 263.181,94.229 262.800 C 93.402 261.490,89.333 253.281,89.333 252.923 C 89.333 252.862,89.148 252.406,88.921 251.910 C 88.694 251.415,88.459 250.801,88.398 250.546 C 88.337 250.292,88.233 250.008,88.166 249.917 C 87.793 249.406,86.463 244.568,85.989 242.000 C 84.946 236.348,84.315 220.073,84.824 211.917 C 85.117 207.213,85.493 202.827,85.660 202.167 C 85.741 201.846,85.935 200.833,86.092 199.917 C 86.248 199.000,86.432 198.175,86.501 198.083 C 86.570 197.992,86.755 197.392,86.913 196.750 C 87.071 196.108,87.255 195.508,87.322 195.417 C 87.390 195.325,87.582 194.725,87.750 194.083 C 87.918 193.442,88.116 192.804,88.189 192.667 C 88.263 192.529,88.630 191.479,89.003 190.333 C 89.377 189.188,89.753 188.100,89.839 187.917 C 89.925 187.733,90.290 186.758,90.651 185.750 C 91.366 183.753,92.867 179.897,93.257 179.058 C 93.390 178.769,93.500 178.490,93.500 178.437 C 93.500 178.384,93.768 177.758,94.095 177.045 C 94.423 176.333,94.805 175.487,94.945 175.167 C 95.562 173.752,95.969 172.895,97.435 169.917 C 99.040 166.657,100.386 164.047,100.618 163.745 C 100.691 163.651,100.899 163.276,101.082 162.912 C 101.264 162.548,101.457 162.212,101.510 162.167 C 101.564 162.121,101.925 161.521,102.314 160.833 C 103.119 159.409,103.556 158.668,104.082 157.833 C 104.284 157.512,104.684 156.875,104.971 156.417 C 105.257 155.958,105.550 155.508,105.622 155.417 C 105.694 155.325,106.089 154.725,106.500 154.083 C 106.911 153.442,107.306 152.842,107.377 152.750 C 107.448 152.658,108.008 151.871,108.621 151.000 C 109.234 150.129,109.833 149.317,109.952 149.195 C 110.071 149.074,110.254 148.816,110.357 148.623 C 110.460 148.429,110.611 148.191,110.692 148.094 C 110.774 147.996,111.861 146.642,113.109 145.083 C 114.358 143.525,115.500 142.129,115.648 141.982 C 115.796 141.835,116.097 141.497,116.318 141.232 C 121.617 134.861,129.114 127.783,135.449 123.167 C 135.890 122.846,136.351 122.488,136.474 122.371 C 136.597 122.254,136.935 122.038,137.224 121.890 C 137.682 121.656,138.241 121.297,140.172 119.995 C 140.404 119.839,140.891 119.549,141.255 119.351 C 141.619 119.153,142.179 118.830,142.500 118.632 C 143.268 118.158,146.772 116.298,147.878 115.777 C 148.700 115.390,150.776 114.433,151.942 113.905 C 152.231 113.774,152.513 113.667,152.569 113.667 C 152.625 113.667,152.988 113.521,153.377 113.343 C 154.235 112.951,156.688 112.050,158.833 111.340 C 159.704 111.051,160.567 110.747,160.750 110.663 C 160.933 110.580,161.571 110.394,162.167 110.250 C 162.762 110.106,163.400 109.919,163.583 109.833 C 163.767 109.748,164.517 109.531,165.250 109.352 C 165.983 109.173,166.996 108.918,167.500 108.786 C 173.705 107.158,181.032 105.976,193.083 104.659 C 193.908 104.569,194.696 104.462,194.833 104.422 C 194.971 104.382,195.533 104.302,196.083 104.245 C 196.633 104.188,197.383 104.060,197.750 103.962 C 199.182 103.577,207.374 103.500,211.333 103.834 M282.493 157.643 C 283.041 159.485,282.969 159.784,282.141 159.087 C 280.764 157.929,279.460 158.023,276.534 159.493 C 274.766 160.381,273.285 161.014,272.250 161.324 C 271.883 161.433,271.433 161.588,271.250 161.667 C 270.889 161.822,268.111 162.714,265.833 163.406 C 264.202 163.901,261.623 164.853,261.500 165.005 C 261.454 165.061,261.061 165.252,260.626 165.429 C 260.191 165.606,259.834 165.806,259.834 165.875 C 259.834 165.944,259.738 166.000,259.621 166.000 C 259.320 166.000,256.078 168.105,254.807 169.125 C 252.487 170.988,247.333 176.572,247.333 177.223 C 247.333 177.275,247.005 177.790,246.604 178.367 C 246.203 178.944,245.714 179.735,245.517 180.125 C 245.074 181.003,245.234 181.063,243.981 179.542 C 242.131 177.297,239.415 174.466,238.557 173.890 L 238.198 173.649 238.574 172.700 C 239.432 170.534,240.753 168.757,242.935 166.833 C 244.092 165.813,247.226 163.667,247.559 163.667 C 247.649 163.667,247.842 163.569,247.987 163.449 C 248.341 163.156,252.011 161.492,252.833 161.251 C 253.063 161.184,253.475 161.031,253.750 160.911 C 254.025 160.791,254.700 160.572,255.250 160.423 C 255.800 160.275,256.400 160.087,256.583 160.006 C 256.767 159.925,257.479 159.735,258.167 159.583 C 258.854 159.431,259.609 159.234,259.844 159.146 C 260.561 158.876,263.886 158.283,269.025 157.507 C 270.442 157.294,278.909 156.628,281.535 156.524 L 282.153 156.500 282.493 157.643 M281.849 161.625 C 282.625 161.994,282.799 162.148,282.741 162.417 C 282.701 162.600,282.512 163.837,282.320 165.165 C 282.128 166.493,281.937 167.633,281.896 167.699 C 281.856 167.766,281.643 168.854,281.425 170.118 C 281.048 172.301,280.284 176.032,280.067 176.750 C 279.925 177.220,279.342 179.957,279.220 180.723 C 279.085 181.578,279.102 181.577,276.246 181.019 C 270.814 179.957,266.772 180.396,261.917 182.573 C 260.475 183.219,259.015 183.833,258.920 183.833 C 258.860 183.833,258.423 184.011,257.948 184.227 C 256.555 184.862,256.333 184.905,256.333 184.542 C 256.333 183.963,256.692 182.252,256.847 182.092 C 256.931 182.005,257.001 181.817,257.001 181.675 C 257.006 180.937,259.464 176.691,261.107 174.583 C 261.322 174.308,261.605 173.933,261.737 173.750 C 262.742 172.356,266.749 167.890,267.221 167.638 C 267.401 167.541,268.156 167.290,268.899 167.079 C 272.605 166.028,275.576 164.521,278.983 161.966 C 280.224 161.036,280.534 160.999,281.849 161.625 M152.700 167.854 C 153.803 168.088,155.700 168.823,157.333 169.649 C 159.420 170.705,160.907 171.493,161.088 171.639 C 161.182 171.715,161.614 171.913,162.046 172.078 C 162.479 172.243,162.833 172.443,162.833 172.523 C 162.833 172.602,162.905 172.667,162.994 172.667 C 163.082 172.667,163.701 172.922,164.369 173.235 C 166.336 174.154,167.502 174.667,167.630 174.668 C 167.696 174.668,167.941 174.769,168.175 174.891 C 168.543 175.083,170.374 175.685,173.417 176.616 C 176.964 177.701,180.845 178.072,188.500 178.059 C 195.405 178.046,196.546 177.987,207.250 177.085 C 227.073 175.414,232.782 175.384,235.140 176.937 C 236.315 177.711,238.629 180.052,240.633 182.494 C 242.531 184.806,245.583 188.927,245.583 189.177 C 245.583 189.339,244.464 189.866,242.917 190.431 C 242.550 190.565,242.025 190.779,241.750 190.906 C 241.475 191.033,240.537 191.410,239.667 191.745 C 238.796 192.079,237.858 192.454,237.583 192.578 C 237.308 192.702,236.371 193.077,235.500 193.411 C 234.629 193.746,233.692 194.121,233.417 194.245 C 233.142 194.369,232.204 194.744,231.333 195.078 C 230.463 195.412,229.525 195.787,229.250 195.911 C 228.975 196.035,228.037 196.410,227.167 196.745 C 226.296 197.079,225.358 197.452,225.083 197.573 C 224.808 197.695,224.283 197.889,223.917 198.006 C 223.550 198.122,223.100 198.310,222.917 198.423 C 222.733 198.537,222.283 198.723,221.917 198.836 C 221.550 198.950,221.175 199.099,221.083 199.166 C 220.992 199.234,220.514 199.420,220.023 199.581 C 219.531 199.741,218.931 199.976,218.690 200.102 C 218.448 200.228,218.183 200.332,218.102 200.332 C 218.020 200.333,217.645 200.481,217.268 200.662 C 216.892 200.842,215.871 201.255,215.000 201.578 C 214.129 201.902,213.201 202.281,212.938 202.420 C 212.471 202.669,212.462 202.665,212.567 202.296 C 213.152 200.242,213.178 200.039,213.081 198.250 C 212.609 189.456,210.961 187.670,204.469 188.912 C 203.799 189.040,203.137 189.185,203.000 189.234 C 202.862 189.283,201.677 189.439,200.365 189.580 C 196.345 190.013,194.482 190.697,192.970 192.295 C 192.263 193.041,190.706 195.602,190.793 195.875 C 190.815 195.944,190.763 196.000,190.678 196.000 C 190.592 196.000,190.469 196.169,190.404 196.375 C 190.339 196.581,189.769 197.673,189.138 198.800 C 188.026 200.785,187.455 201.842,185.875 204.833 C 185.463 205.612,185.068 206.325,184.997 206.417 C 184.925 206.508,184.549 207.221,184.160 208.000 C 183.772 208.779,183.159 209.926,182.799 210.549 C 182.439 211.171,182.040 211.930,181.913 212.234 L 181.681 212.788 182.932 213.645 C 183.620 214.116,184.398 214.661,184.661 214.856 L 185.139 215.209 185.695 214.821 C 186.000 214.607,186.287 214.390,186.333 214.339 C 186.501 214.150,188.435 213.211,189.083 213.003 C 189.450 212.886,189.826 212.730,189.918 212.658 C 190.437 212.251,196.278 210.989,199.500 210.588 C 200.646 210.446,201.883 210.290,202.250 210.242 C 202.617 210.194,203.629 210.090,204.500 210.010 C 205.989 209.873,206.923 209.592,209.250 208.582 C 209.525 208.462,210.125 208.232,210.583 208.070 C 211.042 207.908,211.492 207.724,211.583 207.660 C 211.675 207.596,212.200 207.387,212.750 207.195 C 213.749 206.846,215.472 206.170,216.417 205.756 C 216.692 205.636,217.104 205.483,217.333 205.418 C 217.563 205.352,217.900 205.206,218.083 205.092 C 218.267 204.979,218.631 204.833,218.893 204.769 C 219.156 204.704,219.681 204.508,220.060 204.334 C 220.748 204.018,221.685 203.643,223.583 202.925 C 226.500 201.822,245.273 194.270,245.408 194.146 C 245.495 194.066,245.662 194.000,245.778 194.000 C 245.895 194.000,246.386 193.825,246.870 193.610 C 247.354 193.396,248.125 193.085,248.583 192.920 C 249.042 192.755,249.492 192.565,249.583 192.499 C 249.675 192.432,250.143 192.249,250.623 192.093 C 251.103 191.936,251.539 191.739,251.591 191.654 C 251.801 191.315,252.158 191.539,252.607 192.292 C 254.359 195.229,255.267 197.253,255.313 198.321 C 255.352 199.250,256.569 200.264,258.110 200.653 C 258.462 200.742,259.068 200.894,259.456 200.991 C 259.844 201.088,260.931 201.282,261.872 201.421 C 262.813 201.561,264.071 201.748,264.667 201.838 C 265.955 202.030,269.430 202.386,274.275 202.821 C 278.315 203.183,278.279 203.171,279.018 204.455 C 281.595 208.929,282.417 212.054,281.618 214.337 C 281.004 216.090,280.607 216.422,277.833 217.504 C 275.816 218.291,269.829 221.378,269.694 221.700 C 269.664 221.774,269.582 221.833,269.513 221.833 C 269.444 221.833,268.307 222.441,266.986 223.185 C 263.604 225.087,255.436 229.167,255.009 229.167 C 254.912 229.167,254.833 229.234,254.833 229.315 C 254.833 229.397,254.654 229.509,254.436 229.564 C 254.217 229.619,253.261 230.031,252.311 230.480 C 251.361 230.929,250.021 231.538,249.333 231.832 C 248.071 232.373,247.796 232.495,245.452 233.571 C 244.738 233.899,244.093 234.167,244.019 234.167 C 243.945 234.167,243.667 234.272,243.401 234.400 C 242.968 234.608,242.413 234.846,239.667 235.997 C 239.254 236.169,238.476 236.503,237.938 236.739 C 237.400 236.974,236.896 237.167,236.818 237.167 C 236.740 237.167,236.278 237.349,235.791 237.572 C 234.891 237.984,234.207 238.246,232.417 238.867 C 231.867 239.057,231.337 239.276,231.239 239.352 C 231.141 239.428,230.616 239.638,230.072 239.819 C 228.587 240.313,227.124 240.827,226.750 240.988 C 226.567 241.067,226.042 241.259,225.583 241.415 C 225.125 241.571,224.525 241.795,224.250 241.913 C 223.975 242.032,223.450 242.222,223.083 242.337 C 222.717 242.452,222.237 242.630,222.016 242.731 C 219.863 243.728,216.257 242.463,213.632 239.792 C 212.496 238.636,212.293 240.266,213.344 242.102 C 216.226 247.140,222.367 247.899,230.750 244.254 C 231.025 244.135,231.438 243.981,231.667 243.913 C 232.162 243.766,236.604 242.055,237.083 241.827 C 237.267 241.740,237.717 241.562,238.083 241.430 C 238.450 241.299,239.387 240.917,240.167 240.581 C 240.946 240.244,242.371 239.647,243.333 239.253 C 245.417 238.400,246.065 238.123,247.500 237.473 C 248.096 237.203,248.733 236.915,248.917 236.832 C 249.100 236.749,250.375 236.185,251.750 235.578 C 253.125 234.972,254.639 234.293,255.115 234.071 C 255.590 233.849,256.059 233.667,256.156 233.667 C 256.254 233.667,256.333 233.592,256.333 233.500 C 256.333 233.408,256.412 233.333,256.508 233.333 C 256.604 233.333,257.222 233.081,257.883 232.773 C 258.543 232.465,259.252 232.160,259.458 232.095 C 259.665 232.030,259.833 231.908,259.833 231.822 C 259.833 231.737,259.927 231.667,260.042 231.668 C 260.316 231.669,266.353 228.663,266.637 228.384 C 266.758 228.264,266.933 228.167,267.026 228.167 C 267.176 228.167,270.267 226.477,271.833 225.538 C 274.675 223.836,279.633 221.333,280.162 221.333 C 281.072 221.333,283.513 219.690,284.468 218.435 L 284.835 217.953 285.870 218.593 C 287.053 219.323,287.401 219.603,288.510 220.718 L 289.307 221.519 289.226 222.468 C 288.856 226.753,288.218 228.698,286.119 231.931 C 284.207 234.876,280.264 239.002,274.583 244.001 C 274.033 244.485,273.321 245.117,273.000 245.405 C 272.679 245.693,272.259 246.039,272.067 246.173 C 271.874 246.307,271.312 246.770,270.817 247.201 C 269.960 247.947,268.171 249.434,266.770 250.562 C 261.093 255.136,258.745 257.622,258.043 259.801 C 257.601 261.174,257.763 264.674,258.311 265.583 C 258.366 265.675,258.419 265.787,258.429 265.833 C 258.571 266.535,262.298 274.029,262.655 274.333 C 262.832 274.483,264.160 277.244,264.909 279.016 L 265.641 280.750 265.112 280.873 C 264.821 280.941,264.381 281.024,264.135 281.058 C 263.834 281.100,262.900 281.864,261.301 283.377 C 259.990 284.617,258.354 286.099,257.667 286.670 C 256.979 287.240,256.379 287.754,256.333 287.812 C 256.239 287.930,255.561 288.457,253.500 290.012 C 252.721 290.600,252.046 291.122,252.000 291.172 C 251.954 291.221,250.904 291.934,249.667 292.756 C 248.429 293.578,247.379 294.298,247.333 294.356 C 247.243 294.470,246.739 294.765,244.417 296.060 C 243.592 296.520,242.879 296.939,242.833 296.990 C 242.787 297.042,242.412 297.255,242.000 297.465 C 241.588 297.674,241.137 297.916,241.000 298.003 C 240.602 298.252,237.362 299.809,236.083 300.365 C 235.442 300.644,234.602 301.014,234.217 301.186 C 233.833 301.359,233.476 301.500,233.424 301.500 C 233.372 301.500,233.012 301.643,232.623 301.817 C 230.892 302.594,224.021 304.883,222.802 305.089 C 222.414 305.154,221.981 305.270,221.840 305.346 C 221.496 305.530,217.359 306.415,214.500 306.916 C 212.289 307.303,208.204 307.756,204.667 308.008 C 201.242 308.251,187.208 308.133,185.250 307.845 C 184.517 307.737,182.754 307.498,181.333 307.315 C 178.569 306.959,178.149 306.898,177.500 306.762 C 177.271 306.714,176.558 306.566,175.917 306.432 C 173.923 306.017,169.416 304.806,168.750 304.507 C 168.567 304.424,168.004 304.234,167.500 304.083 C 166.996 303.933,166.433 303.744,166.250 303.664 C 166.067 303.584,165.280 303.359,164.503 303.165 C 162.817 302.743,162.983 302.880,163.189 302.079 C 163.765 299.839,163.880 298.943,163.883 296.667 C 163.885 294.925,163.812 294.017,163.623 293.417 C 163.157 291.936,162.677 290.590,162.520 290.320 C 162.257 289.871,162.140 287.965,162.311 286.917 C 162.533 285.548,163.129 282.990,163.320 282.583 C 163.406 282.400,163.598 281.837,163.747 281.333 C 163.896 280.829,164.088 280.288,164.173 280.131 C 164.323 279.856,164.874 278.038,165.171 276.841 C 166.545 271.297,164.441 267.493,158.377 264.558 C 154.740 262.797,154.726 262.775,155.763 260.295 C 156.428 258.706,159.416 252.807,159.839 252.250 C 160.268 251.685,163.167 245.623,163.167 245.290 C 163.167 245.167,163.240 244.993,163.330 244.904 C 163.622 244.612,164.507 241.858,165.201 239.083 C 165.672 237.201,165.515 221.790,165.000 219.417 C 164.921 219.050,164.731 218.075,164.580 217.250 C 164.191 215.139,163.069 211.376,162.442 210.083 C 162.309 209.808,161.969 209.050,161.688 208.399 C 161.019 206.853,159.825 204.746,158.567 202.893 L 157.872 201.869 158.288 201.680 C 159.298 201.219,161.824 200.945,163.001 201.167 C 164.900 201.525,166.041 200.843,166.230 199.238 C 166.632 195.814,168.905 192.336,171.542 191.109 C 172.275 190.767,172.278 190.740,171.912 188.299 C 171.606 186.268,172.045 186.587,169.127 186.272 C 164.960 185.823,160.470 184.821,158.520 183.905 C 157.268 183.317,156.838 182.961,153.781 179.982 C 152.297 178.537,151.063 177.412,151.037 177.482 C 151.012 177.553,151.112 178.092,151.259 178.680 C 151.406 179.269,151.676 180.387,151.858 181.167 C 152.039 181.946,152.256 182.733,152.339 182.917 C 153.473 185.416,153.562 192.009,152.513 195.750 C 151.969 197.691,149.879 202.198,149.169 202.959 C 149.016 203.124,148.746 203.479,148.570 203.747 C 148.083 204.491,147.124 205.527,144.792 207.830 C 142.303 210.286,142.078 210.876,143.775 210.495 C 144.449 210.343,146.355 209.549,146.500 209.359 C 146.546 209.299,146.808 209.137,147.083 209.000 C 148.534 208.275,150.905 206.413,152.368 204.850 C 153.498 203.643,153.686 203.613,154.288 204.542 C 154.540 204.931,154.790 205.287,154.844 205.333 C 155.087 205.543,157.022 208.778,157.107 209.118 C 157.160 209.328,157.270 209.500,157.351 209.500 C 157.433 209.500,157.500 209.578,157.500 209.674 C 157.500 209.769,157.713 210.313,157.974 210.882 C 160.493 216.384,161.267 221.487,161.113 231.583 C 161.062 234.883,160.949 237.883,160.861 238.250 C 160.472 239.872,159.988 241.610,159.841 241.917 C 159.753 242.100,159.562 242.550,159.417 242.917 C 158.909 244.192,158.578 244.916,157.647 246.779 L 156.710 248.653 155.378 247.285 C 154.646 246.532,153.384 245.167,152.573 244.250 C 150.515 241.924,148.101 239.559,146.828 238.624 C 146.235 238.188,145.675 237.775,145.583 237.705 C 145.141 237.368,143.631 236.468,142.583 235.918 C 141.942 235.580,141.342 235.249,141.250 235.180 C 140.689 234.763,136.166 233.263,134.871 233.065 C 133.908 232.918,133.826 232.798,132.257 229.250 C 131.492 227.517,131.000 226.347,131.000 226.255 C 131.000 226.196,130.859 225.834,130.686 225.449 C 130.514 225.065,130.136 224.188,129.848 223.500 C 129.559 222.813,129.217 222.025,129.088 221.750 C 128.959 221.475,128.579 220.650,128.243 219.917 C 127.537 218.371,126.664 216.606,126.020 215.417 C 125.772 214.958,125.305 214.096,124.983 213.500 C 124.661 212.904,123.915 211.571,123.324 210.537 C 122.733 209.503,122.146 208.453,122.019 208.204 C 121.893 207.954,121.424 207.124,120.978 206.359 C 120.532 205.594,120.167 204.906,120.167 204.830 C 120.167 204.753,120.073 204.591,119.958 204.469 C 119.343 203.814,117.827 200.176,117.715 199.083 L 117.626 198.228 119.352 197.079 C 120.301 196.447,121.191 195.839,121.330 195.728 C 123.142 194.282,124.045 193.472,125.667 191.841 C 127.713 189.783,129.972 187.339,130.834 186.251 C 131.124 185.885,131.418 185.548,131.487 185.501 C 131.609 185.419,134.808 181.657,136.025 180.163 C 136.359 179.752,136.863 179.154,137.145 178.833 C 137.426 178.512,137.716 178.175,137.788 178.083 C 138.162 177.609,139.775 175.731,139.932 175.585 C 140.033 175.492,140.559 174.892,141.102 174.250 C 145.872 168.617,148.768 167.020,152.700 167.854 M272.417 185.314 C 273.816 185.962,273.854 185.908,271.046 187.266 C 268.472 188.511,267.000 189.599,267.000 190.256 C 267.000 190.390,266.940 190.500,266.866 190.500 C 266.660 190.500,266.172 191.990,266.055 192.973 L 265.951 193.853 265.330 193.247 C 262.348 190.335,263.498 186.185,267.667 184.814 C 268.678 184.481,271.189 184.746,272.417 185.314 M202.680 194.985 C 204.295 195.820,204.264 195.882,201.406 197.500 C 199.360 198.659,198.379 199.747,197.990 201.292 L 197.770 202.168 197.280 201.709 C 194.670 199.262,195.330 196.120,198.750 194.712 C 199.566 194.376,201.804 194.531,202.680 194.985 M287.833 202.209 C 288.154 202.690,288.464 203.121,288.522 203.167 C 288.837 203.416,290.399 206.821,290.663 207.833 C 290.771 208.246,290.958 208.883,291.079 209.250 C 291.881 211.674,292.498 218.391,291.969 218.920 C 291.911 218.977,291.426 218.687,290.891 218.276 C 289.306 217.058,287.036 215.972,286.029 215.949 C 285.886 215.946,285.844 215.824,285.909 215.597 C 286.614 213.148,286.250 209.274,285.075 206.725 C 284.942 206.436,284.833 206.157,284.833 206.104 C 284.833 206.052,284.570 205.468,284.248 204.806 C 283.926 204.145,283.725 203.542,283.801 203.466 C 283.982 203.285,287.059 201.338,287.167 201.336 C 287.212 201.335,287.512 201.728,287.833 202.209 M191.653 205.902 C 192.268 207.447,192.283 207.419,190.586 207.854 C 189.029 208.252,189.074 208.286,189.658 207.162 C 189.919 206.660,190.335 205.852,190.583 205.365 C 190.832 204.878,191.056 204.503,191.082 204.531 C 191.107 204.560,191.365 205.177,191.653 205.902 M175.798 255.358 C 174.839 255.709,174.337 257.154,174.809 258.210 C 174.983 258.599,175.219 259.217,175.334 259.583 C 175.449 259.950,175.602 260.325,175.674 260.417 C 175.746 260.508,175.807 260.621,175.808 260.667 C 175.810 260.712,175.847 260.862,175.890 261.000 C 176.591 263.245,177.063 264.879,177.432 266.333 C 177.489 266.557,178.033 269.068,178.261 270.160 C 178.310 270.393,178.492 271.483,178.666 272.583 C 179.235 276.190,179.742 277.400,181.291 278.854 C 183.271 280.711,185.664 281.478,189.500 281.483 C 191.566 281.485,191.906 281.443,194.000 280.923 C 196.423 280.321,201.455 277.999,203.018 276.761 C 203.258 276.572,203.623 276.304,203.830 276.167 C 205.949 274.758,207.218 273.350,206.587 273.108 C 206.300 272.998,204.689 273.290,204.417 273.502 C 204.325 273.574,203.987 273.711,203.667 273.807 C 203.169 273.956,200.440 274.921,199.667 275.221 C 199.529 275.274,198.967 275.438,198.417 275.586 C 197.867 275.733,197.267 275.919,197.083 275.998 C 196.745 276.145,196.275 276.250,193.583 276.781 C 191.850 277.123,187.047 277.208,186.651 276.904 C 186.522 276.805,186.063 276.593,185.630 276.433 C 183.948 275.812,183.474 274.926,182.899 271.333 C 182.367 268.007,181.260 263.049,180.834 262.083 C 180.753 261.900,180.563 261.300,180.411 260.750 C 180.259 260.200,180.078 259.675,180.007 259.583 C 179.937 259.492,179.826 259.193,179.760 258.919 C 179.020 255.833,177.713 254.658,175.798 255.358 M268.898 292.042 C 268.957 292.431,269.152 293.537,269.330 294.500 C 269.627 296.101,270.068 299.805,270.282 302.500 L 270.369 303.583 269.226 304.414 C 268.598 304.870,268.008 305.304,267.917 305.377 C 267.825 305.450,267.337 305.805,266.833 306.167 C 266.329 306.528,265.837 306.890,265.740 306.972 C 265.642 307.054,265.404 307.206,265.211 307.310 C 265.018 307.413,264.760 307.592,264.638 307.707 C 264.253 308.071,259.824 311.000,259.659 311.000 C 259.571 311.000,259.500 311.066,259.500 311.146 C 259.500 311.227,259.269 311.389,258.986 311.506 C 258.703 311.623,258.384 311.802,258.277 311.904 C 257.749 312.409,250.200 316.737,247.654 317.996 C 246.882 318.377,246.137 318.757,246.000 318.840 C 245.773 318.977,244.187 319.727,241.125 321.145 C 240.506 321.432,239.957 321.667,239.906 321.667 C 239.854 321.667,239.402 321.854,238.901 322.083 C 238.400 322.313,237.947 322.500,237.895 322.500 C 237.843 322.500,237.564 322.608,237.275 322.741 C 236.580 323.059,233.702 324.167,233.570 324.167 C 233.514 324.167,233.231 324.273,232.942 324.402 C 232.653 324.531,232.004 324.762,231.500 324.914 C 230.996 325.066,230.433 325.258,230.250 325.341 C 230.067 325.424,229.354 325.654,228.667 325.851 C 224.088 327.167,221.720 327.733,218.917 328.181 C 217.817 328.357,216.467 328.575,215.917 328.667 C 212.144 329.296,200.778 329.469,197.083 328.954 C 190.340 328.014,183.352 326.467,175.083 324.082 C 174.258 323.844,173.096 323.512,172.500 323.344 C 171.904 323.176,170.629 322.801,169.667 322.511 C 168.704 322.220,167.408 321.835,166.786 321.656 C 166.164 321.476,165.527 321.257,165.369 321.169 C 165.212 321.080,163.969 320.516,162.606 319.914 C 160.364 318.924,155.866 316.755,155.691 316.580 C 155.652 316.541,155.918 316.113,156.282 315.629 C 156.848 314.877,158.260 312.827,158.959 311.742 C 159.075 311.563,159.300 311.154,159.459 310.833 C 159.619 310.512,159.801 310.212,159.863 310.165 C 159.924 310.118,160.396 309.196,160.911 308.117 L 161.848 306.154 162.382 306.530 C 162.676 306.737,162.998 306.984,163.098 307.081 C 163.198 307.177,163.723 307.554,164.265 307.919 C 164.807 308.285,165.287 308.621,165.333 308.667 C 165.789 309.122,169.576 311.382,171.333 312.248 C 180.982 316.997,194.923 319.581,205.833 318.641 C 212.324 318.082,216.338 317.532,220.667 316.608 C 223.400 316.024,228.319 314.773,228.917 314.510 C 229.100 314.429,229.662 314.241,230.167 314.092 C 230.671 313.943,231.233 313.754,231.417 313.673 C 231.600 313.592,232.200 313.395,232.750 313.235 C 233.300 313.076,233.825 312.893,233.917 312.828 C 234.008 312.764,234.496 312.578,235.000 312.417 C 235.504 312.255,235.992 312.068,236.083 312.002 C 236.948 311.378,237.293 311.471,238.469 312.647 C 241.100 315.278,244.635 315.608,246.958 313.440 C 247.256 313.162,247.500 312.837,247.500 312.717 C 247.500 312.598,247.563 312.500,247.640 312.500 C 247.914 312.500,248.167 311.192,248.159 309.814 C 248.153 308.579,248.043 308.029,247.592 306.970 C 247.475 306.695,247.921 306.394,250.637 304.917 C 250.974 304.733,251.287 304.544,251.333 304.495 C 251.379 304.446,251.979 304.074,252.667 303.667 C 253.354 303.260,253.954 302.885,254.000 302.835 C 254.046 302.784,254.608 302.409,255.250 302.000 C 255.892 301.592,256.477 301.162,256.550 301.045 C 256.623 300.929,256.759 300.833,256.852 300.833 C 256.944 300.833,257.344 300.590,257.741 300.292 C 258.137 299.994,258.632 299.637,258.840 299.500 C 260.203 298.600,265.628 294.108,267.741 292.128 C 268.769 291.166,268.765 291.166,268.898 292.042 M245.813 309.167 C 246.317 311.702,244.685 313.056,241.999 312.333 C 241.633 312.234,241.333 312.100,241.333 312.034 C 241.333 311.969,241.117 311.819,240.853 311.702 C 240.589 311.585,240.172 311.316,239.925 311.105 L 239.477 310.720 239.899 310.443 C 240.132 310.291,240.366 310.167,240.421 310.167 C 240.522 310.167,242.629 309.188,244.408 308.314 C 245.536 307.760,245.533 307.758,245.813 309.167 " stroke="none" fill="#253048" fill-rule="evenodd"></path></g></svg>